2025-07-20 07:02:13,788 - INFO - Job 147b9b8a-8476-43fe-a7e8-7a5dba538766 initialized.
2025-07-20 07:02:13,789 - INFO - Original input file: Z:\landing_point\Video\Harry Potter and the Deathly Hallows - Part 2\Harry Potter and the Deathly Hallows - Part 2_t01.mkv
2025-07-20 07:02:13,790 - INFO - Final output file: Z:\landing_point\Video\Harry Potter and the Deathly Hallows - Part 2\Harry Potter and the Deathly Hallows - Part 2_t01_DV_P8.mkv
2025-07-20 07:02:13,791 - INFO - Local job staging directory: H:\staging\147b9b8a-8476-43fe-a7e8-7a5dba538766
2025-07-20 07:02:13,792 - INFO - Disk space for Local Staging SSD (H:\staging):
2025-07-20 07:02:13,792 - INFO -   - Total: 3726.01 GB
2025-07-20 07:02:13,793 - INFO -   - Used: 2001.11 GB
2025-07-20 07:02:13,794 - INFO -   - Free: 1724.90 GB
2025-07-20 07:02:13,794 - INFO - === Entering transcode() for job 147b9b8a-8476-43fe-a7e8-7a5dba538766 ===
2025-07-20 07:02:13,795 - INFO - Job dict: {
  "id": "147b9b8a-8476-43fe-a7e8-7a5dba538766",
  "input_path": "\"Z:\\landing_point\\Video\\Harry Potter and the Deathly Hallows - Part 2\\Harry Potter and the Deathly Hallows - Part 2_t01.mkv\"",
  "job_type": "standard",
  "status": "running",
  "worker_id": "CJBLANK",
  "output_path": null,
  "added_at": 1752956658.0849633,
  "retries": 1,
  "steps": {
    "copy_source": "pending",
    "get_metadata": "pending",
    "reencode_x265": "pending",
    "move_final": "pending"
  },
  "claimed_at": 1753016533.6633375
}
2025-07-20 07:02:13,804 - INFO - === Starting transcode pipeline for job 147b9b8a-8476-43fe-a7e8-7a5dba538766 ===
2025-07-20 07:02:13,805 - INFO - Job dict: {'id': '147b9b8a-8476-43fe-a7e8-7a5dba538766', 'input_path': '"Z:\\landing_point\\Video\\Harry Potter and the Deathly Hallows - Part 2\\Harry Potter and the Deathly Hallows - Part 2_t01.mkv"', 'job_type': 'standard', 'status': 'running', 'worker_id': 'CJBLANK', 'output_path': None, 'added_at': 1752956658.0849633, 'retries': 1, 'steps': {'copy_source': 'pending', 'get_metadata': 'pending', 'reencode_x265': 'pending', 'move_final': 'pending'}, 'claimed_at': 1753016533.6633375}
2025-07-20 07:02:13,806 - INFO - Starting step: copy_source - Copying source file locally
2025-07-20 07:02:13,816 - INFO - Copying source file locally: from Z:\landing_point\Video\Harry Potter and the Deathly Hallows - Part 2\Harry Potter and the Deathly Hallows - Part 2_t01.mkv to H:\staging\147b9b8a-8476-43fe-a7e8-7a5dba538766\Harry Potter and the Deathly Hallows - Part 2_t01.mkv
2025-07-20 07:13:40,601 - INFO - Copy successful.
2025-07-20 07:13:40,664 - INFO - Starting step: get_metadata - Getting video metadata
2025-07-20 07:13:40,672 - INFO - Attempting to get video metadata from H:\staging\147b9b8a-8476-43fe-a7e8-7a5dba538766\Harry Potter and the Deathly Hallows - Part 2_t01.mkv
2025-07-20 07:13:41,020 - INFO - Successfully got frame rate: 23.976 fps.
2025-07-20 07:13:41,106 - INFO - Successfully got frame count from tag 'NUMBER_OF_FRAMES-eng': 187643 frames.
2025-07-20 07:13:41,142 - INFO - Starting step: reencode_x265 - Re-encoding and Muxing
2025-07-20 07:13:41,150 - INFO - Executing ffmpeg command: ffmpeg -fflags +genpts -i "H:\staging\147b9b8a-8476-43fe-a7e8-7a5dba538766\Harry Potter and the Deathly Hallows - Part 2_t01.mkv" -map 0 -c:v libx265 -preset medium -crf 18 -threads 10 -x265-params pools=10:no-sao=1:early-skip=1:rd=3:me=hex -c:a copy -c:s copy -y "H:\staging\147b9b8a-8476-43fe-a7e8-7a5dba538766\Harry Potter and the Deathly Hallows - Part 2_t01_x265.mkv"
2025-07-20 07:13:41,224 - ERROR - ffmpeg version 7.1.1-full_build-www.gyan.dev Copyright (c) 2000-2025 the FFmpeg developers
2025-07-20 07:13:41,229 - ERROR - built with gcc 14.2.0 (Rev1, Built by MSYS2 project)
2025-07-20 07:13:41,230 - ERROR - configuration: --enable-gpl --enable-version3 --enable-static --disable-w32threads --disable-autodetect --enable-fontconfig --enable-iconv --enable-gnutls --enable-lcms2 --enable-libxml2 --enable-gmp --enable-bzlib --enable-lzma --enable-libsnappy --enable-zlib --enable-librist --enable-libsrt --enable-libssh --enable-libzmq --enable-avisynth --enable-libbluray --enable-libcaca --enable-libdvdnav --enable-libdvdread --enable-sdl2 --enable-libaribb24 --enable-libaribcaption --enable-libdav1d --enable-libdavs2 --enable-libopenjpeg --enable-libquirc --enable-libuavs3d --enable-libxevd --enable-libzvbi --enable-libqrencode --enable-librav1e --enable-libsvtav1 --enable-libvvenc --enable-libwebp --enable-libx264 --enable-libx265 --enable-libxavs2 --enable-libxeve --enable-libxvid --enable-libaom --enable-libjxl --enable-libvpx --enable-mediafoundation --enable-libass --enable-frei0r --enable-libfreetype --enable-libfribidi --enable-libharfbuzz --enable-liblensfun --enable-libvidstab --enable-libvmaf --enable-libzimg --enable-amf --enable-cuda-llvm --enable-cuvid --enable-dxva2 --enable-d3d11va --enable-d3d12va --enable-ffnvcodec --enable-libvpl --enable-nvdec --enable-nvenc --enable-vaapi --enable-libshaderc --enable-vulkan --enable-libplacebo --enable-opencl --enable-libcdio --enable-libgme --enable-libmodplug --enable-libopenmpt --enable-libopencore-amrwb --enable-libmp3lame --enable-libshine --enable-libtheora --enable-libtwolame --enable-libvo-amrwbenc --enable-libcodec2 --enable-libilbc --enable-libgsm --enable-liblc3 --enable-libopencore-amrnb --enable-libopus --enable-libspeex --enable-libvorbis --enable-ladspa --enable-libbs2b --enable-libflite --enable-libmysofa --enable-librubberband --enable-libsoxr --enable-chromaprint
2025-07-20 07:13:41,231 - ERROR - libavutil      59. 39.100 / 59. 39.100
2025-07-20 07:13:41,231 - ERROR - libavcodec     61. 19.101 / 61. 19.101
2025-07-20 07:13:41,232 - ERROR - libavformat    61.  7.100 / 61.  7.100
2025-07-20 07:13:41,232 - ERROR - libavdevice    61.  3.100 / 61.  3.100
2025-07-20 07:13:41,233 - ERROR - libavfilter    10.  4.100 / 10.  4.100
2025-07-20 07:13:41,235 - ERROR - libswscale      8.  3.100 /  8.  3.100
2025-07-20 07:13:41,237 - ERROR - libswresample   5.  3.100 /  5.  3.100
2025-07-20 07:13:41,238 - ERROR - libpostproc    58.  3.100 / 58.  3.100
2025-07-20 07:13:41,239 - ERROR - [matroska,webm @ 000001512fd877c0] Could not find codec parameters for stream 4 (Subtitle: hdmv_pgs_subtitle (pgssub)): unspecified size
2025-07-20 07:13:41,239 - ERROR - Consider increasing the value for the 'analyzeduration' (0) and 'probesize' (5000000) options
2025-07-20 07:13:41,240 - ERROR - Input #0, matroska,webm, from 'H:\staging\147b9b8a-8476-43fe-a7e8-7a5dba538766\Harry Potter and the Deathly Hallows - Part 2_t01.mkv':
2025-07-20 07:13:41,241 - ERROR - Metadata:
2025-07-20 07:13:41,242 - ERROR - title           : Harry Potter and the Deathly Hallows - Part 2
2025-07-20 07:13:41,242 - ERROR - encoder         : libmakemkv v1.18.1 (1.3.10/1.5.2) win(x64-release)
2025-07-20 07:13:41,243 - ERROR - creation_time   : 2025-05-29T15:59:14.000000Z
2025-07-20 07:13:41,244 - ERROR - Duration: 02:10:26.30, start: 0.000000, bitrate: 52198 kb/s
2025-07-20 07:13:41,244 - ERROR - Chapters:
2025-07-20 07:13:41,245 - ERROR - Chapter #0:0: start 0.000000, end 178.136292
2025-07-20 07:13:41,245 - ERROR - Metadata:
2025-07-20 07:13:41,246 - ERROR - title           : Chapter 01
2025-07-20 07:13:41,247 - ERROR - Chapter #0:1: start 178.136292, end 380.755375
2025-07-20 07:13:41,247 - ERROR - Metadata:
2025-07-20 07:13:41,248 - ERROR - title           : Chapter 02
2025-07-20 07:13:41,248 - ERROR - Chapter #0:2: start 380.755375, end 621.495875
2025-07-20 07:13:41,249 - ERROR - Metadata:
2025-07-20 07:13:41,249 - ERROR - title           : Chapter 03
2025-07-20 07:13:41,250 - ERROR - Chapter #0:3: start 621.495875, end 867.825292
2025-07-20 07:13:41,251 - ERROR - Metadata:
2025-07-20 07:13:41,251 - ERROR - title           : Chapter 04
2025-07-20 07:13:41,252 - ERROR - Chapter #0:4: start 867.825292, end 1205.370833
2025-07-20 07:13:41,253 - ERROR - Metadata:
2025-07-20 07:13:41,254 - ERROR - title           : Chapter 05
2025-07-20 07:13:41,254 - ERROR - Chapter #0:5: start 1205.370833, end 1367.699667
2025-07-20 07:13:41,255 - ERROR - Metadata:
2025-07-20 07:13:41,256 - ERROR - title           : Chapter 06
2025-07-20 07:13:41,256 - ERROR - Chapter #0:6: start 1367.699667, end 1538.537000
2025-07-20 07:13:41,257 - ERROR - Metadata:
2025-07-20 07:13:41,258 - ERROR - title           : Chapter 07
2025-07-20 07:13:41,258 - ERROR - Chapter #0:7: start 1538.537000, end 1846.553042
2025-07-20 07:13:41,259 - ERROR - Metadata:
2025-07-20 07:13:41,260 - ERROR - title           : Chapter 08
2025-07-20 07:13:41,260 - ERROR - Chapter #0:8: start 1846.553042, end 2073.237833
2025-07-20 07:13:41,261 - ERROR - Metadata:
2025-07-20 07:13:41,262 - ERROR - title           : Chapter 09
2025-07-20 07:13:41,262 - ERROR - Chapter #0:9: start 2073.237833, end 2432.179750
2025-07-20 07:13:41,263 - ERROR - Metadata:
2025-07-20 07:13:41,264 - ERROR - title           : Chapter 10
2025-07-20 07:13:41,264 - ERROR - Chapter #0:10: start 2432.179750, end 2751.874125
2025-07-20 07:13:41,265 - ERROR - Metadata:
2025-07-20 07:13:41,265 - ERROR - title           : Chapter 11
2025-07-20 07:13:41,266 - ERROR - Chapter #0:11: start 2751.874125, end 3015.387375
2025-07-20 07:13:41,267 - ERROR - Metadata:
2025-07-20 07:13:41,267 - ERROR - title           : Chapter 12
2025-07-20 07:13:41,268 - ERROR - Chapter #0:12: start 3015.387375, end 3280.735792
2025-07-20 07:13:41,268 - ERROR - Metadata:
2025-07-20 07:13:41,269 - ERROR - title           : Chapter 13
2025-07-20 07:13:41,270 - ERROR - Chapter #0:13: start 3280.735792, end 3540.954083
2025-07-20 07:13:41,271 - ERROR - Metadata:
2025-07-20 07:13:41,271 - ERROR - title           : Chapter 14
2025-07-20 07:13:41,272 - ERROR - Chapter #0:14: start 3540.954083, end 3821.984833
2025-07-20 07:13:41,273 - ERROR - Metadata:
2025-07-20 07:13:41,273 - ERROR - title           : Chapter 15
2025-07-20 07:13:41,274 - ERROR - Chapter #0:15: start 3821.984833, end 4025.980292
2025-07-20 07:13:41,275 - ERROR - Metadata:
2025-07-20 07:13:41,275 - ERROR - title           : Chapter 16
2025-07-20 07:13:41,276 - ERROR - Chapter #0:16: start 4025.980292, end 4284.405125
2025-07-20 07:13:41,277 - ERROR - Metadata:
2025-07-20 07:13:41,277 - ERROR - title           : Chapter 17
2025-07-20 07:13:41,278 - ERROR - Chapter #0:17: start 4284.405125, end 4478.515708
2025-07-20 07:13:41,279 - ERROR - Metadata:
2025-07-20 07:13:41,279 - ERROR - title           : Chapter 18
2025-07-20 07:13:41,280 - ERROR - Chapter #0:18: start 4478.515708, end 5020.765750
2025-07-20 07:13:41,281 - ERROR - Metadata:
2025-07-20 07:13:41,281 - ERROR - title           : Chapter 19
2025-07-20 07:13:41,282 - ERROR - Chapter #0:19: start 5020.765750, end 5357.393708
2025-07-20 07:13:41,282 - ERROR - Metadata:
2025-07-20 07:13:41,283 - ERROR - title           : Chapter 20
2025-07-20 07:13:41,284 - ERROR - Chapter #0:20: start 5357.393708, end 5484.604125
2025-07-20 07:13:41,284 - ERROR - Metadata:
2025-07-20 07:13:41,285 - ERROR - title           : Chapter 21
2025-07-20 07:13:41,286 - ERROR - Chapter #0:21: start 5484.604125, end 5797.416625
2025-07-20 07:13:41,286 - ERROR - Metadata:
2025-07-20 07:13:41,287 - ERROR - title           : Chapter 22
2025-07-20 07:13:41,287 - ERROR - Chapter #0:22: start 5797.416625, end 6068.771042
2025-07-20 07:13:41,288 - ERROR - Metadata:
2025-07-20 07:13:41,289 - ERROR - title           : Chapter 23
2025-07-20 07:13:41,289 - ERROR - Chapter #0:23: start 6068.771042, end 6401.937208
2025-07-20 07:13:41,290 - ERROR - Metadata:
2025-07-20 07:13:41,291 - ERROR - title           : Chapter 24
2025-07-20 07:13:41,292 - ERROR - Chapter #0:24: start 6401.937208, end 6618.278333
2025-07-20 07:13:41,292 - ERROR - Metadata:
2025-07-20 07:13:41,293 - ERROR - title           : Chapter 25
2025-07-20 07:13:41,294 - ERROR - Chapter #0:25: start 6618.278333, end 6856.933417
2025-07-20 07:13:41,294 - ERROR - Metadata:
2025-07-20 07:13:41,295 - ERROR - title           : Chapter 26
2025-07-20 07:13:41,296 - ERROR - Chapter #0:26: start 6856.933417, end 7092.502083
2025-07-20 07:13:41,296 - ERROR - Metadata:
2025-07-20 07:13:41,297 - ERROR - title           : Chapter 27
2025-07-20 07:13:41,298 - ERROR - Chapter #0:27: start 7092.502083, end 7826.304000
2025-07-20 07:13:41,299 - ERROR - Metadata:
2025-07-20 07:13:41,299 - ERROR - title           : Chapter 28
2025-07-20 07:13:41,300 - ERROR - Stream #0:0(eng): Video: hevc (Main 10), yuv420p10le(tv, bt2020nc/bt2020/smpte2084), 3840x2160 [SAR 1:1 DAR 16:9], 23.98 fps, 23.98 tbr, 1k tbn
2025-07-20 07:13:41,301 - ERROR - Metadata:
2025-07-20 07:13:41,301 - ERROR - BPS-eng         : 46685911
2025-07-20 07:13:41,302 - ERROR - DURATION-eng    : 02:10:26.276791666
2025-07-20 07:13:41,302 - ERROR - NUMBER_OF_FRAMES-eng: 187643
2025-07-20 07:13:41,303 - ERROR - NUMBER_OF_BYTES-eng: 45672103418
2025-07-20 07:13:41,303 - ERROR - SOURCE_ID-eng   : 001011
2025-07-20 07:13:41,304 - ERROR - _STATISTICS_WRITING_APP-eng: MakeMKV v1.18.1 win(x64-release)
2025-07-20 07:13:41,304 - ERROR - _STATISTICS_WRITING_DATE_UTC-eng: 2025-05-29 15:59:14
2025-07-20 07:13:41,305 - ERROR - _STATISTICS_TAGS-eng: BPS DURATION NUMBER_OF_FRAMES NUMBER_OF_BYTES SOURCE_ID
2025-07-20 07:13:41,305 - ERROR - Stream #0:1(eng): Audio: dts (dca) (DTS-HD MA + DTS:X), 48000 Hz, 7.1, s32p (24 bit) (default)
2025-07-20 07:13:41,306 - ERROR - Metadata:
2025-07-20 07:13:41,307 - ERROR - title           : Surround 7.1
2025-07-20 07:13:41,307 - ERROR - BPS-eng         : 3787225
2025-07-20 07:13:41,308 - ERROR - DURATION-eng    : 02:10:26.282666666
2025-07-20 07:13:41,309 - ERROR - NUMBER_OF_FRAMES-eng: 733714
2025-07-20 07:13:41,309 - ERROR - NUMBER_OF_BYTES-eng: 3704986416
2025-07-20 07:13:41,310 - ERROR - SOURCE_ID-eng   : 001100
2025-07-20 07:13:41,311 - ERROR - _STATISTICS_WRITING_APP-eng: MakeMKV v1.18.1 win(x64-release)
2025-07-20 07:13:41,311 - ERROR - _STATISTICS_WRITING_DATE_UTC-eng: 2025-05-29 15:59:14
2025-07-20 07:13:41,312 - ERROR - _STATISTICS_TAGS-eng: BPS DURATION NUMBER_OF_FRAMES NUMBER_OF_BYTES SOURCE_ID
2025-07-20 07:13:41,312 - ERROR - Stream #0:2(eng): Audio: dts (dca) (DTS), 48000 Hz, 5.1(side), fltp, 1536 kb/s
2025-07-20 07:13:41,313 - ERROR - Metadata:
2025-07-20 07:13:41,314 - ERROR - title           : Surround 5.1
2025-07-20 07:13:41,314 - ERROR - BPS-eng         : 1509000
2025-07-20 07:13:41,315 - ERROR - DURATION-eng    : 02:10:26.282666666
2025-07-20 07:13:41,316 - ERROR - NUMBER_OF_FRAMES-eng: 733714
2025-07-20 07:13:41,316 - ERROR - NUMBER_OF_BYTES-eng: 1476232568
2025-07-20 07:13:41,317 - ERROR - SOURCE_ID-eng   : 001100
2025-07-20 07:13:41,318 - ERROR - _STATISTICS_WRITING_APP-eng: MakeMKV v1.18.1 win(x64-release)
2025-07-20 07:13:41,318 - ERROR - _STATISTICS_WRITING_DATE_UTC-eng: 2025-05-29 15:59:14
2025-07-20 07:13:41,319 - ERROR - _STATISTICS_TAGS-eng: BPS DURATION NUMBER_OF_FRAMES NUMBER_OF_BYTES SOURCE_ID
2025-07-20 07:13:41,320 - ERROR - Stream #0:3(eng): Audio: ac3, 48000 Hz, stereo, fltp, 192 kb/s
2025-07-20 07:13:41,320 - ERROR - Metadata:
2025-07-20 07:13:41,321 - ERROR - title           : Stereo
2025-07-20 07:13:41,322 - ERROR - BPS-eng         : 192000
2025-07-20 07:13:41,322 - ERROR - DURATION-eng    : 02:10:26.304000000
2025-07-20 07:13:41,323 - ERROR - NUMBER_OF_FRAMES-eng: 244572
2025-07-20 07:13:41,323 - ERROR - NUMBER_OF_BYTES-eng: 187831296
2025-07-20 07:13:41,324 - ERROR - SOURCE_ID-eng   : 001101
2025-07-20 07:13:41,325 - ERROR - _STATISTICS_WRITING_APP-eng: MakeMKV v1.18.1 win(x64-release)
2025-07-20 07:13:41,325 - ERROR - _STATISTICS_WRITING_DATE_UTC-eng: 2025-05-29 15:59:14
2025-07-20 07:13:41,326 - ERROR - _STATISTICS_TAGS-eng: BPS DURATION NUMBER_OF_FRAMES NUMBER_OF_BYTES SOURCE_ID
2025-07-20 07:13:41,327 - ERROR - Stream #0:4(eng): Subtitle: hdmv_pgs_subtitle (pgssub)
2025-07-20 07:13:41,327 - ERROR - Metadata:
2025-07-20 07:13:41,328 - ERROR - BPS-eng         : 19814
2025-07-20 07:13:41,329 - ERROR - DURATION-eng    : 02:09:07.302062500
2025-07-20 07:13:41,329 - ERROR - NUMBER_OF_FRAMES-eng: 2058
2025-07-20 07:13:41,330 - ERROR - NUMBER_OF_BYTES-eng: 19188179
2025-07-20 07:13:41,331 - ERROR - SOURCE_ID-eng   : 0012A0
2025-07-20 07:13:41,331 - ERROR - _STATISTICS_WRITING_APP-eng: MakeMKV v1.18.1 win(x64-release)
2025-07-20 07:13:41,332 - ERROR - _STATISTICS_WRITING_DATE_UTC-eng: 2025-05-29 15:59:14
2025-07-20 07:13:41,332 - ERROR - _STATISTICS_TAGS-eng: BPS DURATION NUMBER_OF_FRAMES NUMBER_OF_BYTES SOURCE_ID
2025-07-20 07:13:41,333 - ERROR - Stream mapping:
2025-07-20 07:13:41,334 - ERROR - Stream #0:0 -> #0:0 (hevc (native) -> hevc (libx265))
2025-07-20 07:13:41,334 - ERROR - Stream #0:1 -> #0:1 (copy)
2025-07-20 07:13:41,335 - ERROR - Stream #0:2 -> #0:2 (copy)
2025-07-20 07:13:41,335 - ERROR - Stream #0:3 -> #0:3 (copy)
2025-07-20 07:13:41,336 - ERROR - Stream #0:4 -> #0:4 (copy)
2025-07-20 07:13:41,337 - ERROR - Press [q] to stop, [?] for help
2025-07-20 07:13:41,352 - ERROR - x265 [info]: HEVC encoder version 4.1+110-0e0eee580
2025-07-20 07:13:41,354 - ERROR - x265 [info]: build info [Windows][GCC 14.2.0][64 bit] 10bit
2025-07-20 07:13:41,355 - ERROR - x265 [info]: using cpu capabilities: MMX2 SSE2Fast LZCNT SSSE3 SSE4.2 AVX FMA3 BMI2 AVX2
2025-07-20 07:13:41,356 - ERROR - x265 [warning]: Turning on repeat-headers for HDR compatibility
2025-07-20 07:13:41,357 - ERROR - x265 [info]: Main 10 profile, Level-5 (Main tier)
2025-07-20 07:13:41,358 - ERROR - x265 [info]: Thread pool created using 10 threads
2025-07-20 07:13:41,359 - ERROR - x265 [info]: Slices                              : 1
2025-07-20 07:13:41,359 - ERROR - x265 [info]: frame threads / pool features       : 10 / wpp(34 rows)
2025-07-20 07:13:41,389 - ERROR - x265 [info]: Coding QT: max CU size, min CU size : 64 / 8
2025-07-20 07:13:41,390 - ERROR - x265 [info]: Residual QT: max TU size, max depth : 32 / 1 inter / 1 intra
2025-07-20 07:13:41,392 - ERROR - x265 [info]: ME / range / subpel / merge         : hex / 57 / 2 / 3
2025-07-20 07:13:41,393 - ERROR - x265 [info]: Keyframe min / max / scenecut / bias  : 23 / 250 / 40 / 5.00
2025-07-20 07:13:41,394 - ERROR - x265 [info]: Lookahead / bframes / badapt        : 20 / 4 / 2
2025-07-20 07:13:41,395 - ERROR - x265 [info]: b-pyramid / weightp / weightb       : 1 / 1 / 0
2025-07-20 07:13:41,395 - ERROR - x265 [info]: References / ref-limit  cu / depth  : 3 / off / on
2025-07-20 07:13:41,396 - ERROR - x265 [info]: AQ: mode / str / qg-size / cu-tree  : 2 / 1.0 / 32 / 1
2025-07-20 07:13:41,397 - ERROR - x265 [info]: Rate Control / qCompress            : CRF-18.0 / 0.60
2025-07-20 07:13:41,397 - ERROR - x265 [info]: tools: rd=3 psy-rd=2.00 early-skip rskip mode=1 signhide tmvp
2025-07-20 07:13:41,398 - ERROR - x265 [info]: tools: b-intra strong-intra-smoothing lslices=8 deblock
2025-07-20 07:13:41,398 - ERROR - x265 [info]: tools: dhdr10-info
2025-07-20 07:13:41,399 - ERROR - Output #0, matroska, to 'H:\staging\147b9b8a-8476-43fe-a7e8-7a5dba538766\Harry Potter and the Deathly Hallows - Part 2_t01_x265.mkv':
2025-07-20 07:13:41,400 - ERROR - Metadata:
2025-07-20 07:13:41,400 - ERROR - title           : Harry Potter and the Deathly Hallows - Part 2
2025-07-20 07:13:41,401 - ERROR - encoder         : Lavf61.7.100
2025-07-20 07:13:41,402 - ERROR - Chapters:
2025-07-20 07:13:41,402 - ERROR - Chapter #0:0: start 0.000000, end 178.136292
2025-07-20 07:13:41,403 - ERROR - Metadata:
2025-07-20 07:13:41,403 - ERROR - title           : Chapter 01
2025-07-20 07:13:41,404 - ERROR - Chapter #0:1: start 178.136292, end 380.755375
2025-07-20 07:13:41,404 - ERROR - Metadata:
2025-07-20 07:13:41,405 - ERROR - title           : Chapter 02
2025-07-20 07:13:41,406 - ERROR - Chapter #0:2: start 380.755375, end 621.495875
2025-07-20 07:13:41,406 - ERROR - Metadata:
2025-07-20 07:13:41,407 - ERROR - title           : Chapter 03
2025-07-20 07:13:41,408 - ERROR - Chapter #0:3: start 621.495875, end 867.825292
2025-07-20 07:13:41,409 - ERROR - Metadata:
2025-07-20 07:13:41,410 - ERROR - title           : Chapter 04
2025-07-20 07:13:41,410 - ERROR - Chapter #0:4: start 867.825292, end 1205.370833
2025-07-20 07:13:41,411 - ERROR - Metadata:
2025-07-20 07:13:41,412 - ERROR - title           : Chapter 05
2025-07-20 07:13:41,412 - ERROR - Chapter #0:5: start 1205.370833, end 1367.699667
2025-07-20 07:13:41,413 - ERROR - Metadata:
2025-07-20 07:13:41,414 - ERROR - title           : Chapter 06
2025-07-20 07:13:41,414 - ERROR - Chapter #0:6: start 1367.699667, end 1538.537000
2025-07-20 07:13:41,415 - ERROR - Metadata:
2025-07-20 07:13:41,416 - ERROR - title           : Chapter 07
2025-07-20 07:13:41,416 - ERROR - Chapter #0:7: start 1538.537000, end 1846.553042
2025-07-20 07:13:41,417 - ERROR - Metadata:
2025-07-20 07:13:41,418 - ERROR - title           : Chapter 08
2025-07-20 07:13:41,418 - ERROR - Chapter #0:8: start 1846.553042, end 2073.237833
2025-07-20 07:13:41,419 - ERROR - Metadata:
2025-07-20 07:13:41,419 - ERROR - title           : Chapter 09
2025-07-20 07:13:41,420 - ERROR - Chapter #0:9: start 2073.237833, end 2432.179750
2025-07-20 07:13:41,420 - ERROR - Metadata:
2025-07-20 07:13:41,421 - ERROR - title           : Chapter 10
2025-07-20 07:13:41,422 - ERROR - Chapter #0:10: start 2432.179750, end 2751.874125
2025-07-20 07:13:41,423 - ERROR - Metadata:
2025-07-20 07:13:41,424 - ERROR - title           : Chapter 11
2025-07-20 07:13:41,425 - ERROR - Chapter #0:11: start 2751.874125, end 3015.387375
2025-07-20 07:13:41,425 - ERROR - Metadata:
2025-07-20 07:13:41,426 - ERROR - title           : Chapter 12
2025-07-20 07:13:41,427 - ERROR - Chapter #0:12: start 3015.387375, end 3280.735792
2025-07-20 07:13:41,428 - ERROR - Metadata:
2025-07-20 07:13:41,428 - ERROR - title           : Chapter 13
2025-07-20 07:13:41,429 - ERROR - Chapter #0:13: start 3280.735792, end 3540.954083
2025-07-20 07:13:41,430 - ERROR - Metadata:
2025-07-20 07:13:41,430 - ERROR - title           : Chapter 14
2025-07-20 07:13:41,431 - ERROR - Chapter #0:14: start 3540.954083, end 3821.984833
2025-07-20 07:13:41,432 - ERROR - Metadata:
2025-07-20 07:13:41,432 - ERROR - title           : Chapter 15
2025-07-20 07:13:41,433 - ERROR - Chapter #0:15: start 3821.984833, end 4025.980292
2025-07-20 07:13:41,433 - ERROR - Metadata:
2025-07-20 07:13:41,434 - ERROR - title           : Chapter 16
2025-07-20 07:13:41,435 - ERROR - Chapter #0:16: start 4025.980292, end 4284.405125
2025-07-20 07:13:41,435 - ERROR - Metadata:
2025-07-20 07:13:41,436 - ERROR - title           : Chapter 17
2025-07-20 07:13:41,437 - ERROR - Chapter #0:17: start 4284.405125, end 4478.515708
2025-07-20 07:13:41,438 - ERROR - Metadata:
2025-07-20 07:13:41,439 - ERROR - title           : Chapter 18
2025-07-20 07:13:41,440 - ERROR - Chapter #0:18: start 4478.515708, end 5020.765750
2025-07-20 07:13:41,440 - ERROR - Metadata:
2025-07-20 07:13:41,441 - ERROR - title           : Chapter 19
2025-07-20 07:13:41,442 - ERROR - Chapter #0:19: start 5020.765750, end 5357.393708
2025-07-20 07:13:41,442 - ERROR - Metadata:
2025-07-20 07:13:41,443 - ERROR - title           : Chapter 20
2025-07-20 07:13:41,444 - ERROR - Chapter #0:20: start 5357.393708, end 5484.604125
2025-07-20 07:13:41,445 - ERROR - Metadata:
2025-07-20 07:13:41,445 - ERROR - title           : Chapter 21
2025-07-20 07:13:41,446 - ERROR - Chapter #0:21: start 5484.604125, end 5797.416625
2025-07-20 07:13:41,446 - ERROR - Metadata:
2025-07-20 07:13:41,447 - ERROR - title           : Chapter 22
2025-07-20 07:13:41,447 - ERROR - Chapter #0:22: start 5797.416625, end 6068.771042
2025-07-20 07:13:41,448 - ERROR - Metadata:
2025-07-20 07:13:41,448 - ERROR - title           : Chapter 23
2025-07-20 07:13:41,449 - ERROR - Chapter #0:23: start 6068.771042, end 6401.937208
2025-07-20 07:13:41,450 - ERROR - Metadata:
2025-07-20 07:13:41,450 - ERROR - title           : Chapter 24
2025-07-20 07:13:41,451 - ERROR - Chapter #0:24: start 6401.937208, end 6618.278333
2025-07-20 07:13:41,452 - ERROR - Metadata:
2025-07-20 07:13:41,452 - ERROR - title           : Chapter 25
2025-07-20 07:13:41,453 - ERROR - Chapter #0:25: start 6618.278333, end 6856.933417
2025-07-20 07:13:41,454 - ERROR - Metadata:
2025-07-20 07:13:41,454 - ERROR - title           : Chapter 26
2025-07-20 07:13:41,455 - ERROR - Chapter #0:26: start 6856.933417, end 7092.502083
2025-07-20 07:13:41,456 - ERROR - Metadata:
2025-07-20 07:13:41,457 - ERROR - title           : Chapter 27
2025-07-20 07:13:41,458 - ERROR - Chapter #0:27: start 7092.502083, end 7826.304000
2025-07-20 07:13:41,459 - ERROR - Metadata:
2025-07-20 07:13:41,459 - ERROR - title           : Chapter 28
2025-07-20 07:13:41,460 - ERROR - Stream #0:0(eng): Video: hevc, yuv420p10le(tv, bt2020nc/bt2020/smpte2084, progressive), 3840x2160 [SAR 1:1 DAR 16:9], q=2-31, 23.98 fps, 1k tbn
2025-07-20 07:13:41,461 - ERROR - Metadata:
2025-07-20 07:13:41,462 - ERROR - BPS-eng         : 46685911
2025-07-20 07:13:41,463 - ERROR - DURATION-eng    : 02:10:26.276791666
2025-07-20 07:13:41,463 - ERROR - NUMBER_OF_FRAMES-eng: 187643
2025-07-20 07:13:41,464 - ERROR - NUMBER_OF_BYTES-eng: 45672103418
2025-07-20 07:13:41,464 - ERROR - SOURCE_ID-eng   : 001011
2025-07-20 07:13:41,465 - ERROR - _STATISTICS_WRITING_APP-eng: MakeMKV v1.18.1 win(x64-release)
2025-07-20 07:13:41,466 - ERROR - _STATISTICS_WRITING_DATE_UTC-eng: 2025-05-29 15:59:14
2025-07-20 07:13:41,466 - ERROR - _STATISTICS_TAGS-eng: BPS DURATION NUMBER_OF_FRAMES NUMBER_OF_BYTES SOURCE_ID
2025-07-20 07:13:41,467 - ERROR - encoder         : Lavc61.19.101 libx265
2025-07-20 07:13:41,468 - ERROR - Side data:
2025-07-20 07:13:41,469 - ERROR - Mastering Display Metadata, has_primaries:1 has_luminance:1 r(0.6800,0.3200) g(0.2650,0.6900) b(0.1500 0.0600) wp(0.3127, 0.3290) min_luminance=0.005000, max_luminance=4000.000000
2025-07-20 07:13:41,469 - ERROR - Content Light Level Metadata, MaxCLL=500, MaxFALL=200
2025-07-20 07:13:41,470 - ERROR - cpb: bitrate max/min/avg: 0/0/0 buffer size: 0 vbv_delay: N/A
2025-07-20 07:13:41,471 - ERROR - Stream #0:1(eng): Audio: dts (DTS-HD MA + DTS:X) ([1] [0][0] / 0x2001), 48000 Hz, 7.1, s32p (24 bit) (default)
2025-07-20 07:13:41,472 - ERROR - Metadata:
2025-07-20 07:13:41,472 - ERROR - title           : Surround 7.1
2025-07-20 07:13:41,473 - ERROR - BPS-eng         : 3787225
2025-07-20 07:13:41,474 - ERROR - DURATION-eng    : 02:10:26.282666666
2025-07-20 07:13:41,475 - ERROR - NUMBER_OF_FRAMES-eng: 733714
2025-07-20 07:13:41,476 - ERROR - NUMBER_OF_BYTES-eng: 3704986416
2025-07-20 07:13:41,477 - ERROR - SOURCE_ID-eng   : 001100
2025-07-20 07:13:41,477 - ERROR - _STATISTICS_WRITING_APP-eng: MakeMKV v1.18.1 win(x64-release)
2025-07-20 07:13:41,478 - ERROR - _STATISTICS_WRITING_DATE_UTC-eng: 2025-05-29 15:59:14
2025-07-20 07:13:41,479 - ERROR - _STATISTICS_TAGS-eng: BPS DURATION NUMBER_OF_FRAMES NUMBER_OF_BYTES SOURCE_ID
2025-07-20 07:13:41,480 - ERROR - Stream #0:2(eng): Audio: dts (DTS) ([1] [0][0] / 0x2001), 48000 Hz, 5.1(side), fltp, 1536 kb/s
2025-07-20 07:13:41,481 - ERROR - Metadata:
2025-07-20 07:13:41,482 - ERROR - title           : Surround 5.1
2025-07-20 07:13:41,482 - ERROR - BPS-eng         : 1509000
2025-07-20 07:13:41,483 - ERROR - DURATION-eng    : 02:10:26.282666666
2025-07-20 07:13:41,484 - ERROR - NUMBER_OF_FRAMES-eng: 733714
2025-07-20 07:13:41,484 - ERROR - NUMBER_OF_BYTES-eng: 1476232568
2025-07-20 07:13:41,485 - ERROR - SOURCE_ID-eng   : 001100
2025-07-20 07:13:41,485 - ERROR - _STATISTICS_WRITING_APP-eng: MakeMKV v1.18.1 win(x64-release)
2025-07-20 07:13:41,486 - ERROR - _STATISTICS_WRITING_DATE_UTC-eng: 2025-05-29 15:59:14
2025-07-20 07:13:41,487 - ERROR - _STATISTICS_TAGS-eng: BPS DURATION NUMBER_OF_FRAMES NUMBER_OF_BYTES SOURCE_ID
2025-07-20 07:13:41,488 - ERROR - Stream #0:3(eng): Audio: ac3 ([0] [0][0] / 0x2000), 48000 Hz, stereo, fltp, 192 kb/s
2025-07-20 07:13:41,488 - ERROR - Metadata:
2025-07-20 07:13:41,489 - ERROR - title           : Stereo
2025-07-20 07:13:41,490 - ERROR - BPS-eng         : 192000
2025-07-20 07:13:41,491 - ERROR - DURATION-eng    : 02:10:26.304000000
2025-07-20 07:13:41,492 - ERROR - NUMBER_OF_FRAMES-eng: 244572
2025-07-20 07:13:41,492 - ERROR - NUMBER_OF_BYTES-eng: 187831296
2025-07-20 07:13:41,493 - ERROR - SOURCE_ID-eng   : 001101
2025-07-20 07:13:41,494 - ERROR - _STATISTICS_WRITING_APP-eng: MakeMKV v1.18.1 win(x64-release)
2025-07-20 07:13:41,495 - ERROR - _STATISTICS_WRITING_DATE_UTC-eng: 2025-05-29 15:59:14
2025-07-20 07:13:41,495 - ERROR - _STATISTICS_TAGS-eng: BPS DURATION NUMBER_OF_FRAMES NUMBER_OF_BYTES SOURCE_ID
2025-07-20 07:13:41,496 - ERROR - Stream #0:4(eng): Subtitle: hdmv_pgs_subtitle ([255][255][255][255] / 0xFFFFFFFF)
2025-07-20 07:13:41,497 - ERROR - Metadata:
2025-07-20 07:13:41,497 - ERROR - BPS-eng         : 19814
2025-07-20 07:13:41,498 - ERROR - DURATION-eng    : 02:09:07.302062500
2025-07-20 07:13:41,498 - ERROR - NUMBER_OF_FRAMES-eng: 2058
2025-07-20 07:13:41,499 - ERROR - NUMBER_OF_BYTES-eng: 19188179
2025-07-20 07:13:41,500 - ERROR - SOURCE_ID-eng   : 0012A0
2025-07-20 07:13:41,500 - ERROR - _STATISTICS_WRITING_APP-eng: MakeMKV v1.18.1 win(x64-release)
2025-07-20 07:13:41,501 - ERROR - _STATISTICS_WRITING_DATE_UTC-eng: 2025-05-29 15:59:14
2025-07-20 07:13:41,502 - ERROR - _STATISTICS_TAGS-eng: BPS DURATION NUMBER_OF_FRAMES NUMBER_OF_BYTES SOURCE_ID
2025-07-20 13:37:16,096 - ERROR - [out#0/matroska @ 000001512fd6ec80] video:16343014KiB audio:5243213KiB subtitle:18738KiB other streams:0KiB global headers:3KiB muxing overhead: 0.061835%
2025-07-20 13:37:16,098 - ERROR - x265 [info]: frame I:   1406, Avg QP:18.20  kb/s: 48319.50
2025-07-20 13:37:16,099 - ERROR - x265 [info]: frame P:  42405, Avg QP:19.88  kb/s: 27184.93
2025-07-20 13:37:16,100 - ERROR - x265 [info]: frame B: 143832, Avg QP:23.09  kb/s: 13824.91
2025-07-20 13:37:16,100 - ERROR - x265 [info]: Weighted P-Frames: Y:3.3% UV:2.4%
2025-07-20 13:37:16,101 - ERROR - encoded 187643 frames in 23014.71s (8.15 fps), 17102.57 kb/s, Avg QP:22.32
2025-07-20 13:37:16,600 - INFO - Successfully completed: Re-encoding to x265
2025-07-20 13:37:16,663 - INFO - Starting step: move_final - Moving final file to destination
2025-07-20 13:37:16,671 - INFO - Moving final file from H:\staging\147b9b8a-8476-43fe-a7e8-7a5dba538766\Harry Potter and the Deathly Hallows - Part 2_t01_x265.mkv to Z:\landing_point\Video\Harry Potter and the Deathly Hallows - Part 2\Harry Potter and the Deathly Hallows - Part 2_t01_x265.mkv
2025-07-20 13:40:29,982 - INFO - Move successful.
2025-07-20 13:40:30,042 - INFO - === transcode() completed successfully for job 147b9b8a-8476-43fe-a7e8-7a5dba538766 ===
2025-07-20 13:40:30,108 - INFO - Cleaning up job staging directory: H:\staging\147b9b8a-8476-43fe-a7e8-7a5dba538766
2025-07-21 01:01:21,736 - INFO - Job 147b9b8a-8476-43fe-a7e8-7a5dba538766 initialized.
2025-07-21 01:01:21,737 - INFO - Original input file: Z:\landing_point\Video\Harry Potter and the Deathly Hallows - Part 2\Harry Potter and the Deathly Hallows - Part 2_t01.mkv
2025-07-21 01:01:21,738 - INFO - Final output file: Z:\landing_point\Video\Harry Potter and the Deathly Hallows - Part 2\Harry Potter and the Deathly Hallows - Part 2_t01_DV_P8.mkv
2025-07-21 01:01:21,738 - INFO - Local job staging directory: H:\staging\147b9b8a-8476-43fe-a7e8-7a5dba538766
2025-07-21 01:01:21,739 - INFO - Disk space for Local Staging SSD (H:\staging):
2025-07-21 01:01:21,740 - INFO -   - Total: 3726.01 GB
2025-07-21 01:01:21,740 - INFO -   - Used: 2206.22 GB
2025-07-21 01:01:21,741 - INFO -   - Free: 1519.79 GB
2025-07-21 01:01:21,742 - INFO - === Entering transcode() for job 147b9b8a-8476-43fe-a7e8-7a5dba538766 ===
2025-07-21 01:01:21,742 - INFO - Job dict: {
  "id": "147b9b8a-8476-43fe-a7e8-7a5dba538766",
  "input_path": "\"Z:\\landing_point\\Video\\Harry Potter and the Deathly Hallows - Part 2\\Harry Potter and the Deathly Hallows - Part 2_t01.mkv\"",
  "job_type": "standard",
  "status": "running",
  "worker_id": "CJBLANK",
  "output_path": "Z:\\landing_point\\Video\\Harry Potter and the Deathly Hallows - Part 2\\Harry Potter and the Deathly Hallows - Part 2_t01_x265.mkv",
  "added_at": 1752956658.0849633,
  "retries": 2,
  "steps": {
    "copy_source": "pending",
    "get_metadata": "pending",
    "reencode_x265": "pending",
    "move_final": "pending"
  },
  "claimed_at": 1753081281.6217988,
  "completed_at": 1753040430.0799708
}
2025-07-21 01:01:21,752 - INFO - === Starting transcode pipeline for job 147b9b8a-8476-43fe-a7e8-7a5dba538766 ===
2025-07-21 01:01:21,754 - INFO - Job dict: {'id': '147b9b8a-8476-43fe-a7e8-7a5dba538766', 'input_path': '"Z:\\landing_point\\Video\\Harry Potter and the Deathly Hallows - Part 2\\Harry Potter and the Deathly Hallows - Part 2_t01.mkv"', 'job_type': 'standard', 'status': 'running', 'worker_id': 'CJBLANK', 'output_path': 'Z:\\landing_point\\Video\\Harry Potter and the Deathly Hallows - Part 2\\Harry Potter and the Deathly Hallows - Part 2_t01_x265.mkv', 'added_at': 1752956658.0849633, 'retries': 2, 'steps': {'copy_source': 'pending', 'get_metadata': 'pending', 'reencode_x265': 'pending', 'move_final': 'pending'}, 'claimed_at': 1753081281.6217988, 'completed_at': 1753040430.0799708}
2025-07-21 01:01:21,755 - INFO - Starting step: copy_source - Copying source file locally
2025-07-21 01:01:21,766 - INFO - Copying source file locally: from Z:\landing_point\Video\Harry Potter and the Deathly Hallows - Part 2\Harry Potter and the Deathly Hallows - Part 2_t01.mkv to H:\staging\147b9b8a-8476-43fe-a7e8-7a5dba538766\Harry Potter and the Deathly Hallows - Part 2_t01.mkv
2025-07-21 01:12:48,741 - INFO - Copy successful.
2025-07-21 01:12:48,805 - INFO - Starting step: get_metadata - Getting video metadata
2025-07-21 01:12:48,813 - INFO - Attempting to get video metadata from H:\staging\147b9b8a-8476-43fe-a7e8-7a5dba538766\Harry Potter and the Deathly Hallows - Part 2_t01.mkv
2025-07-21 01:12:49,040 - INFO - Successfully got frame rate: 23.976 fps.
2025-07-21 01:12:49,123 - INFO - Successfully got frame count from tag 'NUMBER_OF_FRAMES-eng': 187643 frames.
2025-07-21 01:12:49,172 - INFO - Starting step: reencode_x265 - Re-encoding and Muxing
2025-07-21 01:12:49,174 - INFO - Executing ffmpeg command: ffmpeg -fflags +genpts -i "H:\staging\147b9b8a-8476-43fe-a7e8-7a5dba538766\Harry Potter and the Deathly Hallows - Part 2_t01.mkv" -map 0 -c:v libx265 -preset medium -crf 18 -threads 10 -x265-params pools=10:no-sao=1:early-skip=1:rd=3:me=hex -c:a copy -c:s copy -y "H:\staging\147b9b8a-8476-43fe-a7e8-7a5dba538766\Harry Potter and the Deathly Hallows - Part 2_t01_x265.mkv"
2025-07-21 01:12:49,279 - ERROR - ffmpeg version 7.1.1-full_build-www.gyan.dev Copyright (c) 2000-2025 the FFmpeg developers
2025-07-21 01:12:49,281 - ERROR - built with gcc 14.2.0 (Rev1, Built by MSYS2 project)
2025-07-21 01:12:49,282 - ERROR - configuration: --enable-gpl --enable-version3 --enable-static --disable-w32threads --disable-autodetect --enable-fontconfig --enable-iconv --enable-gnutls --enable-lcms2 --enable-libxml2 --enable-gmp --enable-bzlib --enable-lzma --enable-libsnappy --enable-zlib --enable-librist --enable-libsrt --enable-libssh --enable-libzmq --enable-avisynth --enable-libbluray --enable-libcaca --enable-libdvdnav --enable-libdvdread --enable-sdl2 --enable-libaribb24 --enable-libaribcaption --enable-libdav1d --enable-libdavs2 --enable-libopenjpeg --enable-libquirc --enable-libuavs3d --enable-libxevd --enable-libzvbi --enable-libqrencode --enable-librav1e --enable-libsvtav1 --enable-libvvenc --enable-libwebp --enable-libx264 --enable-libx265 --enable-libxavs2 --enable-libxeve --enable-libxvid --enable-libaom --enable-libjxl --enable-libvpx --enable-mediafoundation --enable-libass --enable-frei0r --enable-libfreetype --enable-libfribidi --enable-libharfbuzz --enable-liblensfun --enable-libvidstab --enable-libvmaf --enable-libzimg --enable-amf --enable-cuda-llvm --enable-cuvid --enable-dxva2 --enable-d3d11va --enable-d3d12va --enable-ffnvcodec --enable-libvpl --enable-nvdec --enable-nvenc --enable-vaapi --enable-libshaderc --enable-vulkan --enable-libplacebo --enable-opencl --enable-libcdio --enable-libgme --enable-libmodplug --enable-libopenmpt --enable-libopencore-amrwb --enable-libmp3lame --enable-libshine --enable-libtheora --enable-libtwolame --enable-libvo-amrwbenc --enable-libcodec2 --enable-libilbc --enable-libgsm --enable-liblc3 --enable-libopencore-amrnb --enable-libopus --enable-libspeex --enable-libvorbis --enable-ladspa --enable-libbs2b --enable-libflite --enable-libmysofa --enable-librubberband --enable-libsoxr --enable-chromaprint
2025-07-21 01:12:49,283 - ERROR - libavutil      59. 39.100 / 59. 39.100
2025-07-21 01:12:49,284 - ERROR - libavcodec     61. 19.101 / 61. 19.101
2025-07-21 01:12:49,284 - ERROR - libavformat    61.  7.100 / 61.  7.100
2025-07-21 01:12:49,285 - ERROR - libavdevice    61.  3.100 / 61.  3.100
2025-07-21 01:12:49,285 - ERROR - libavfilter    10.  4.100 / 10.  4.100
2025-07-21 01:12:49,286 - ERROR - libswscale      8.  3.100 /  8.  3.100
2025-07-21 01:12:49,286 - ERROR - libswresample   5.  3.100 /  5.  3.100
2025-07-21 01:12:49,287 - ERROR - libpostproc    58.  3.100 / 58.  3.100
2025-07-21 01:12:49,288 - ERROR - [matroska,webm @ 0000017cfa7c77c0] Could not find codec parameters for stream 4 (Subtitle: hdmv_pgs_subtitle (pgssub)): unspecified size
2025-07-21 01:12:49,289 - ERROR - Consider increasing the value for the 'analyzeduration' (0) and 'probesize' (5000000) options
2025-07-21 01:12:49,289 - ERROR - Input #0, matroska,webm, from 'H:\staging\147b9b8a-8476-43fe-a7e8-7a5dba538766\Harry Potter and the Deathly Hallows - Part 2_t01.mkv':
2025-07-21 01:12:49,290 - ERROR - Metadata:
2025-07-21 01:12:49,291 - ERROR - title           : Harry Potter and the Deathly Hallows - Part 2
2025-07-21 01:12:49,291 - ERROR - encoder         : libmakemkv v1.18.1 (1.3.10/1.5.2) win(x64-release)
2025-07-21 01:12:49,292 - ERROR - creation_time   : 2025-05-29T15:59:14.000000Z
2025-07-21 01:12:49,293 - ERROR - Duration: 02:10:26.30, start: 0.000000, bitrate: 52198 kb/s
2025-07-21 01:12:49,293 - ERROR - Chapters:
2025-07-21 01:12:49,294 - ERROR - Chapter #0:0: start 0.000000, end 178.136292
2025-07-21 01:12:49,294 - ERROR - Metadata:
2025-07-21 01:12:49,295 - ERROR - title           : Chapter 01
2025-07-21 01:12:49,296 - ERROR - Chapter #0:1: start 178.136292, end 380.755375
2025-07-21 01:12:49,296 - ERROR - Metadata:
2025-07-21 01:12:49,297 - ERROR - title           : Chapter 02
2025-07-21 01:12:49,297 - ERROR - Chapter #0:2: start 380.755375, end 621.495875
2025-07-21 01:12:49,298 - ERROR - Metadata:
2025-07-21 01:12:49,298 - ERROR - title           : Chapter 03
2025-07-21 01:12:49,299 - ERROR - Chapter #0:3: start 621.495875, end 867.825292
2025-07-21 01:12:49,300 - ERROR - Metadata:
2025-07-21 01:12:49,300 - ERROR - title           : Chapter 04
2025-07-21 01:12:49,301 - ERROR - Chapter #0:4: start 867.825292, end 1205.370833
2025-07-21 01:12:49,302 - ERROR - Metadata:
2025-07-21 01:12:49,302 - ERROR - title           : Chapter 05
2025-07-21 01:12:49,303 - ERROR - Chapter #0:5: start 1205.370833, end 1367.699667
2025-07-21 01:12:49,303 - ERROR - Metadata:
2025-07-21 01:12:49,304 - ERROR - title           : Chapter 06
2025-07-21 01:12:49,305 - ERROR - Chapter #0:6: start 1367.699667, end 1538.537000
2025-07-21 01:12:49,305 - ERROR - Metadata:
2025-07-21 01:12:49,306 - ERROR - title           : Chapter 07
2025-07-21 01:12:49,307 - ERROR - Chapter #0:7: start 1538.537000, end 1846.553042
2025-07-21 01:12:49,307 - ERROR - Metadata:
2025-07-21 01:12:49,308 - ERROR - title           : Chapter 08
2025-07-21 01:12:49,309 - ERROR - Chapter #0:8: start 1846.553042, end 2073.237833
2025-07-21 01:12:49,309 - ERROR - Metadata:
2025-07-21 01:12:49,310 - ERROR - title           : Chapter 09
2025-07-21 01:12:49,311 - ERROR - Chapter #0:9: start 2073.237833, end 2432.179750
2025-07-21 01:12:49,311 - ERROR - Metadata:
2025-07-21 01:12:49,312 - ERROR - title           : Chapter 10
2025-07-21 01:12:49,313 - ERROR - Chapter #0:10: start 2432.179750, end 2751.874125
2025-07-21 01:12:49,313 - ERROR - Metadata:
2025-07-21 01:12:49,314 - ERROR - title           : Chapter 11
2025-07-21 01:12:49,315 - ERROR - Chapter #0:11: start 2751.874125, end 3015.387375
2025-07-21 01:12:49,315 - ERROR - Metadata:
2025-07-21 01:12:49,316 - ERROR - title           : Chapter 12
2025-07-21 01:12:49,317 - ERROR - Chapter #0:12: start 3015.387375, end 3280.735792
2025-07-21 01:12:49,317 - ERROR - Metadata:
2025-07-21 01:12:49,318 - ERROR - title           : Chapter 13
2025-07-21 01:12:49,318 - ERROR - Chapter #0:13: start 3280.735792, end 3540.954083
2025-07-21 01:12:49,319 - ERROR - Metadata:
2025-07-21 01:12:49,320 - ERROR - title           : Chapter 14
2025-07-21 01:12:49,321 - ERROR - Chapter #0:14: start 3540.954083, end 3821.984833
2025-07-21 01:12:49,321 - ERROR - Metadata:
2025-07-21 01:12:49,322 - ERROR - title           : Chapter 15
2025-07-21 01:12:49,322 - ERROR - Chapter #0:15: start 3821.984833, end 4025.980292
2025-07-21 01:12:49,323 - ERROR - Metadata:
2025-07-21 01:12:49,324 - ERROR - title           : Chapter 16
2025-07-21 01:12:49,325 - ERROR - Chapter #0:16: start 4025.980292, end 4284.405125
2025-07-21 01:12:49,325 - ERROR - Metadata:
2025-07-21 01:12:49,326 - ERROR - title           : Chapter 17
2025-07-21 01:12:49,326 - ERROR - Chapter #0:17: start 4284.405125, end 4478.515708
2025-07-21 01:12:49,327 - ERROR - Metadata:
2025-07-21 01:12:49,327 - ERROR - title           : Chapter 18
2025-07-21 01:12:49,328 - ERROR - Chapter #0:18: start 4478.515708, end 5020.765750
2025-07-21 01:12:49,329 - ERROR - Metadata:
2025-07-21 01:12:49,329 - ERROR - title           : Chapter 19
2025-07-21 01:12:49,330 - ERROR - Chapter #0:19: start 5020.765750, end 5357.393708
2025-07-21 01:12:49,331 - ERROR - Metadata:
2025-07-21 01:12:49,331 - ERROR - title           : Chapter 20
2025-07-21 01:12:49,332 - ERROR - Chapter #0:20: start 5357.393708, end 5484.604125
2025-07-21 01:12:49,332 - ERROR - Metadata:
2025-07-21 01:12:49,333 - ERROR - title           : Chapter 21
2025-07-21 01:12:49,334 - ERROR - Chapter #0:21: start 5484.604125, end 5797.416625
2025-07-21 01:12:49,334 - ERROR - Metadata:
2025-07-21 01:12:49,335 - ERROR - title           : Chapter 22
2025-07-21 01:12:49,336 - ERROR - Chapter #0:22: start 5797.416625, end 6068.771042
2025-07-21 01:12:49,336 - ERROR - Metadata:
2025-07-21 01:12:49,337 - ERROR - title           : Chapter 23
2025-07-21 01:12:49,337 - ERROR - Chapter #0:23: start 6068.771042, end 6401.937208
2025-07-21 01:12:49,338 - ERROR - Metadata:
2025-07-21 01:12:49,339 - ERROR - title           : Chapter 24
2025-07-21 01:12:49,340 - ERROR - Chapter #0:24: start 6401.937208, end 6618.278333
2025-07-21 01:12:49,340 - ERROR - Metadata:
2025-07-21 01:12:49,341 - ERROR - title           : Chapter 25
2025-07-21 01:12:49,342 - ERROR - Chapter #0:25: start 6618.278333, end 6856.933417
2025-07-21 01:12:49,342 - ERROR - Metadata:
2025-07-21 01:12:49,343 - ERROR - title           : Chapter 26
2025-07-21 01:12:49,344 - ERROR - Chapter #0:26: start 6856.933417, end 7092.502083
2025-07-21 01:12:49,345 - ERROR - Metadata:
2025-07-21 01:12:49,345 - ERROR - title           : Chapter 27
2025-07-21 01:12:49,346 - ERROR - Chapter #0:27: start 7092.502083, end 7826.304000
2025-07-21 01:12:49,347 - ERROR - Metadata:
2025-07-21 01:12:49,347 - ERROR - title           : Chapter 28
2025-07-21 01:12:49,348 - ERROR - Stream #0:0(eng): Video: hevc (Main 10), yuv420p10le(tv, bt2020nc/bt2020/smpte2084), 3840x2160 [SAR 1:1 DAR 16:9], 23.98 fps, 23.98 tbr, 1k tbn
2025-07-21 01:12:49,348 - ERROR - Metadata:
2025-07-21 01:12:49,349 - ERROR - BPS-eng         : 46685911
2025-07-21 01:12:49,350 - ERROR - DURATION-eng    : 02:10:26.276791666
2025-07-21 01:12:49,350 - ERROR - NUMBER_OF_FRAMES-eng: 187643
2025-07-21 01:12:49,351 - ERROR - NUMBER_OF_BYTES-eng: 45672103418
2025-07-21 01:12:49,351 - ERROR - SOURCE_ID-eng   : 001011
2025-07-21 01:12:49,352 - ERROR - _STATISTICS_WRITING_APP-eng: MakeMKV v1.18.1 win(x64-release)
2025-07-21 01:12:49,352 - ERROR - _STATISTICS_WRITING_DATE_UTC-eng: 2025-05-29 15:59:14
2025-07-21 01:12:49,353 - ERROR - _STATISTICS_TAGS-eng: BPS DURATION NUMBER_OF_FRAMES NUMBER_OF_BYTES SOURCE_ID
2025-07-21 01:12:49,354 - ERROR - Stream #0:1(eng): Audio: dts (dca) (DTS-HD MA + DTS:X), 48000 Hz, 7.1, s32p (24 bit) (default)
2025-07-21 01:12:49,355 - ERROR - Metadata:
2025-07-21 01:12:49,355 - ERROR - title           : Surround 7.1
2025-07-21 01:12:49,356 - ERROR - BPS-eng         : 3787225
2025-07-21 01:12:49,357 - ERROR - DURATION-eng    : 02:10:26.282666666
2025-07-21 01:12:49,357 - ERROR - NUMBER_OF_FRAMES-eng: 733714
2025-07-21 01:12:49,358 - ERROR - NUMBER_OF_BYTES-eng: 3704986416
2025-07-21 01:12:49,359 - ERROR - SOURCE_ID-eng   : 001100
2025-07-21 01:12:49,359 - ERROR - _STATISTICS_WRITING_APP-eng: MakeMKV v1.18.1 win(x64-release)
2025-07-21 01:12:49,360 - ERROR - _STATISTICS_WRITING_DATE_UTC-eng: 2025-05-29 15:59:14
2025-07-21 01:12:49,360 - ERROR - _STATISTICS_TAGS-eng: BPS DURATION NUMBER_OF_FRAMES NUMBER_OF_BYTES SOURCE_ID
2025-07-21 01:12:49,361 - ERROR - Stream #0:2(eng): Audio: dts (dca) (DTS), 48000 Hz, 5.1(side), fltp, 1536 kb/s
2025-07-21 01:12:49,362 - ERROR - Metadata:
2025-07-21 01:12:49,362 - ERROR - title           : Surround 5.1
2025-07-21 01:12:49,363 - ERROR - BPS-eng         : 1509000
2025-07-21 01:12:49,363 - ERROR - DURATION-eng    : 02:10:26.282666666
2025-07-21 01:12:49,364 - ERROR - NUMBER_OF_FRAMES-eng: 733714
2025-07-21 01:12:49,365 - ERROR - NUMBER_OF_BYTES-eng: 1476232568
2025-07-21 01:12:49,365 - ERROR - SOURCE_ID-eng   : 001100
2025-07-21 01:12:49,366 - ERROR - _STATISTICS_WRITING_APP-eng: MakeMKV v1.18.1 win(x64-release)
2025-07-21 01:12:49,367 - ERROR - _STATISTICS_WRITING_DATE_UTC-eng: 2025-05-29 15:59:14
2025-07-21 01:12:49,367 - ERROR - _STATISTICS_TAGS-eng: BPS DURATION NUMBER_OF_FRAMES NUMBER_OF_BYTES SOURCE_ID
2025-07-21 01:12:49,368 - ERROR - Stream #0:3(eng): Audio: ac3, 48000 Hz, stereo, fltp, 192 kb/s
2025-07-21 01:12:49,368 - ERROR - Metadata:
2025-07-21 01:12:49,369 - ERROR - title           : Stereo
2025-07-21 01:12:49,370 - ERROR - BPS-eng         : 192000
2025-07-21 01:12:49,371 - ERROR - DURATION-eng    : 02:10:26.304000000
2025-07-21 01:12:49,371 - ERROR - NUMBER_OF_FRAMES-eng: 244572
2025-07-21 01:12:49,372 - ERROR - NUMBER_OF_BYTES-eng: 187831296
2025-07-21 01:12:49,372 - ERROR - SOURCE_ID-eng   : 001101
2025-07-21 01:12:49,373 - ERROR - _STATISTICS_WRITING_APP-eng: MakeMKV v1.18.1 win(x64-release)
2025-07-21 01:12:49,374 - ERROR - _STATISTICS_WRITING_DATE_UTC-eng: 2025-05-29 15:59:14
2025-07-21 01:12:49,374 - ERROR - _STATISTICS_TAGS-eng: BPS DURATION NUMBER_OF_FRAMES NUMBER_OF_BYTES SOURCE_ID
2025-07-21 01:12:49,375 - ERROR - Stream #0:4(eng): Subtitle: hdmv_pgs_subtitle (pgssub)
2025-07-21 01:12:49,375 - ERROR - Metadata:
2025-07-21 01:12:49,376 - ERROR - BPS-eng         : 19814
2025-07-21 01:12:49,377 - ERROR - DURATION-eng    : 02:09:07.302062500
2025-07-21 01:12:49,378 - ERROR - NUMBER_OF_FRAMES-eng: 2058
2025-07-21 01:12:49,379 - ERROR - NUMBER_OF_BYTES-eng: 19188179
2025-07-21 01:12:49,379 - ERROR - SOURCE_ID-eng   : 0012A0
2025-07-21 01:12:49,380 - ERROR - _STATISTICS_WRITING_APP-eng: MakeMKV v1.18.1 win(x64-release)
2025-07-21 01:12:49,381 - ERROR - _STATISTICS_WRITING_DATE_UTC-eng: 2025-05-29 15:59:14
2025-07-21 01:12:49,381 - ERROR - _STATISTICS_TAGS-eng: BPS DURATION NUMBER_OF_FRAMES NUMBER_OF_BYTES SOURCE_ID
2025-07-21 01:12:49,382 - ERROR - Stream mapping:
2025-07-21 01:12:49,383 - ERROR - Stream #0:0 -> #0:0 (hevc (native) -> hevc (libx265))
2025-07-21 01:12:49,383 - ERROR - Stream #0:1 -> #0:1 (copy)
2025-07-21 01:12:49,384 - ERROR - Stream #0:2 -> #0:2 (copy)
2025-07-21 01:12:49,385 - ERROR - Stream #0:3 -> #0:3 (copy)
2025-07-21 01:12:49,386 - ERROR - Stream #0:4 -> #0:4 (copy)
2025-07-21 01:12:49,386 - ERROR - Press [q] to stop, [?] for help
2025-07-21 01:12:49,408 - ERROR - x265 [info]: HEVC encoder version 4.1+110-0e0eee580
2025-07-21 01:12:49,409 - ERROR - x265 [info]: build info [Windows][GCC 14.2.0][64 bit] 10bit
2025-07-21 01:12:49,411 - ERROR - x265 [info]: using cpu capabilities: MMX2 SSE2Fast LZCNT SSSE3 SSE4.2 AVX FMA3 BMI2 AVX2
2025-07-21 01:12:49,412 - ERROR - x265 [warning]: Turning on repeat-headers for HDR compatibility
2025-07-21 01:12:49,412 - ERROR - x265 [info]: Main 10 profile, Level-5 (Main tier)
2025-07-21 01:12:49,413 - ERROR - x265 [info]: Thread pool created using 10 threads
2025-07-21 01:12:49,414 - ERROR - x265 [info]: Slices                              : 1
2025-07-21 01:12:49,414 - ERROR - x265 [info]: frame threads / pool features       : 10 / wpp(34 rows)
2025-07-21 01:12:49,442 - ERROR - x265 [info]: Coding QT: max CU size, min CU size : 64 / 8
2025-07-21 01:12:49,444 - ERROR - x265 [info]: Residual QT: max TU size, max depth : 32 / 1 inter / 1 intra
2025-07-21 01:12:49,445 - ERROR - x265 [info]: ME / range / subpel / merge         : hex / 57 / 2 / 3
2025-07-21 01:12:49,446 - ERROR - x265 [info]: Keyframe min / max / scenecut / bias  : 23 / 250 / 40 / 5.00
2025-07-21 01:12:49,447 - ERROR - x265 [info]: Lookahead / bframes / badapt        : 20 / 4 / 2
2025-07-21 01:12:49,448 - ERROR - x265 [info]: b-pyramid / weightp / weightb       : 1 / 1 / 0
2025-07-21 01:12:49,449 - ERROR - x265 [info]: References / ref-limit  cu / depth  : 3 / off / on
2025-07-21 01:12:49,450 - ERROR - x265 [info]: AQ: mode / str / qg-size / cu-tree  : 2 / 1.0 / 32 / 1
2025-07-21 01:12:49,450 - ERROR - x265 [info]: Rate Control / qCompress            : CRF-18.0 / 0.60
2025-07-21 01:12:49,451 - ERROR - x265 [info]: tools: rd=3 psy-rd=2.00 early-skip rskip mode=1 signhide tmvp
2025-07-21 01:12:49,452 - ERROR - x265 [info]: tools: b-intra strong-intra-smoothing lslices=8 deblock
2025-07-21 01:12:49,452 - ERROR - x265 [info]: tools: dhdr10-info
2025-07-21 01:12:49,453 - ERROR - Output #0, matroska, to 'H:\staging\147b9b8a-8476-43fe-a7e8-7a5dba538766\Harry Potter and the Deathly Hallows - Part 2_t01_x265.mkv':
2025-07-21 01:12:49,454 - ERROR - Metadata:
2025-07-21 01:12:49,454 - ERROR - title           : Harry Potter and the Deathly Hallows - Part 2
2025-07-21 01:12:49,455 - ERROR - encoder         : Lavf61.7.100
2025-07-21 01:12:49,456 - ERROR - Chapters:
2025-07-21 01:12:49,456 - ERROR - Chapter #0:0: start 0.000000, end 178.136292
2025-07-21 01:12:49,457 - ERROR - Metadata:
2025-07-21 01:12:49,458 - ERROR - title           : Chapter 01
2025-07-21 01:12:49,458 - ERROR - Chapter #0:1: start 178.136292, end 380.755375
2025-07-21 01:12:49,459 - ERROR - Metadata:
2025-07-21 01:12:49,459 - ERROR - title           : Chapter 02
2025-07-21 01:12:49,460 - ERROR - Chapter #0:2: start 380.755375, end 621.495875
2025-07-21 01:12:49,461 - ERROR - Metadata:
2025-07-21 01:12:49,462 - ERROR - title           : Chapter 03
2025-07-21 01:12:49,463 - ERROR - Chapter #0:3: start 621.495875, end 867.825292
2025-07-21 01:12:49,463 - ERROR - Metadata:
2025-07-21 01:12:49,464 - ERROR - title           : Chapter 04
2025-07-21 01:12:49,465 - ERROR - Chapter #0:4: start 867.825292, end 1205.370833
2025-07-21 01:12:49,465 - ERROR - Metadata:
2025-07-21 01:12:49,466 - ERROR - title           : Chapter 05
2025-07-21 01:12:49,467 - ERROR - Chapter #0:5: start 1205.370833, end 1367.699667
2025-07-21 01:12:49,467 - ERROR - Metadata:
2025-07-21 01:12:49,468 - ERROR - title           : Chapter 06
2025-07-21 01:12:49,468 - ERROR - Chapter #0:6: start 1367.699667, end 1538.537000
2025-07-21 01:12:49,469 - ERROR - Metadata:
2025-07-21 01:12:49,470 - ERROR - title           : Chapter 07
2025-07-21 01:12:49,471 - ERROR - Chapter #0:7: start 1538.537000, end 1846.553042
2025-07-21 01:12:49,471 - ERROR - Metadata:
2025-07-21 01:12:49,472 - ERROR - title           : Chapter 08
2025-07-21 01:12:49,473 - ERROR - Chapter #0:8: start 1846.553042, end 2073.237833
2025-07-21 01:12:49,473 - ERROR - Metadata:
2025-07-21 01:12:49,474 - ERROR - title           : Chapter 09
2025-07-21 01:12:49,475 - ERROR - Chapter #0:9: start 2073.237833, end 2432.179750
2025-07-21 01:12:49,475 - ERROR - Metadata:
2025-07-21 01:12:49,476 - ERROR - title           : Chapter 10
2025-07-21 01:12:49,476 - ERROR - Chapter #0:10: start 2432.179750, end 2751.874125
2025-07-21 01:12:49,477 - ERROR - Metadata:
2025-07-21 01:12:49,478 - ERROR - title           : Chapter 11
2025-07-21 01:12:49,479 - ERROR - Chapter #0:11: start 2751.874125, end 3015.387375
2025-07-21 01:12:49,480 - ERROR - Metadata:
2025-07-21 01:12:49,481 - ERROR - title           : Chapter 12
2025-07-21 01:12:49,482 - ERROR - Chapter #0:12: start 3015.387375, end 3280.735792
2025-07-21 01:12:49,482 - ERROR - Metadata:
2025-07-21 01:12:49,483 - ERROR - title           : Chapter 13
2025-07-21 01:12:49,484 - ERROR - Chapter #0:13: start 3280.735792, end 3540.954083
2025-07-21 01:12:49,485 - ERROR - Metadata:
2025-07-21 01:12:49,485 - ERROR - title           : Chapter 14
2025-07-21 01:12:49,486 - ERROR - Chapter #0:14: start 3540.954083, end 3821.984833
2025-07-21 01:12:49,486 - ERROR - Metadata:
2025-07-21 01:12:49,487 - ERROR - title           : Chapter 15
2025-07-21 01:12:49,487 - ERROR - Chapter #0:15: start 3821.984833, end 4025.980292
2025-07-21 01:12:49,488 - ERROR - Metadata:
2025-07-21 01:12:49,488 - ERROR - title           : Chapter 16
2025-07-21 01:12:49,489 - ERROR - Chapter #0:16: start 4025.980292, end 4284.405125
2025-07-21 01:12:49,490 - ERROR - Metadata:
2025-07-21 01:12:49,490 - ERROR - title           : Chapter 17
2025-07-21 01:12:49,491 - ERROR - Chapter #0:17: start 4284.405125, end 4478.515708
2025-07-21 01:12:49,492 - ERROR - Metadata:
2025-07-21 01:12:49,492 - ERROR - title           : Chapter 18
2025-07-21 01:12:49,493 - ERROR - Chapter #0:18: start 4478.515708, end 5020.765750
2025-07-21 01:12:49,494 - ERROR - Metadata:
2025-07-21 01:12:49,495 - ERROR - title           : Chapter 19
2025-07-21 01:12:49,496 - ERROR - Chapter #0:19: start 5020.765750, end 5357.393708
2025-07-21 01:12:49,496 - ERROR - Metadata:
2025-07-21 01:12:49,497 - ERROR - title           : Chapter 20
2025-07-21 01:12:49,498 - ERROR - Chapter #0:20: start 5357.393708, end 5484.604125
2025-07-21 01:12:49,498 - ERROR - Metadata:
2025-07-21 01:12:49,499 - ERROR - title           : Chapter 21
2025-07-21 01:12:49,500 - ERROR - Chapter #0:21: start 5484.604125, end 5797.416625
2025-07-21 01:12:49,500 - ERROR - Metadata:
2025-07-21 01:12:49,501 - ERROR - title           : Chapter 22
2025-07-21 01:12:49,501 - ERROR - Chapter #0:22: start 5797.416625, end 6068.771042
2025-07-21 01:12:49,502 - ERROR - Metadata:
2025-07-21 01:12:49,502 - ERROR - title           : Chapter 23
2025-07-21 01:12:49,503 - ERROR - Chapter #0:23: start 6068.771042, end 6401.937208
2025-07-21 01:12:49,503 - ERROR - Metadata:
2025-07-21 01:12:49,504 - ERROR - title           : Chapter 24
2025-07-21 01:12:49,505 - ERROR - Chapter #0:24: start 6401.937208, end 6618.278333
2025-07-21 01:12:49,505 - ERROR - Metadata:
2025-07-21 01:12:49,506 - ERROR - title           : Chapter 25
2025-07-21 01:12:49,506 - ERROR - Chapter #0:25: start 6618.278333, end 6856.933417
2025-07-21 01:12:49,507 - ERROR - Metadata:
2025-07-21 01:12:49,507 - ERROR - title           : Chapter 26
2025-07-21 01:12:49,508 - ERROR - Chapter #0:26: start 6856.933417, end 7092.502083
2025-07-21 01:12:49,508 - ERROR - Metadata:
2025-07-21 01:12:49,509 - ERROR - title           : Chapter 27
2025-07-21 01:12:49,510 - ERROR - Chapter #0:27: start 7092.502083, end 7826.304000
2025-07-21 01:12:49,511 - ERROR - Metadata:
2025-07-21 01:12:49,511 - ERROR - title           : Chapter 28
2025-07-21 01:12:49,512 - ERROR - Stream #0:0(eng): Video: hevc, yuv420p10le(tv, bt2020nc/bt2020/smpte2084, progressive), 3840x2160 [SAR 1:1 DAR 16:9], q=2-31, 23.98 fps, 1k tbn
2025-07-21 01:12:49,513 - ERROR - Metadata:
2025-07-21 01:12:49,513 - ERROR - BPS-eng         : 46685911
2025-07-21 01:12:49,514 - ERROR - DURATION-eng    : 02:10:26.276791666
2025-07-21 01:12:49,515 - ERROR - NUMBER_OF_FRAMES-eng: 187643
2025-07-21 01:12:49,515 - ERROR - NUMBER_OF_BYTES-eng: 45672103418
2025-07-21 01:12:49,516 - ERROR - SOURCE_ID-eng   : 001011
2025-07-21 01:12:49,516 - ERROR - _STATISTICS_WRITING_APP-eng: MakeMKV v1.18.1 win(x64-release)
2025-07-21 01:12:49,517 - ERROR - _STATISTICS_WRITING_DATE_UTC-eng: 2025-05-29 15:59:14
2025-07-21 01:12:49,518 - ERROR - _STATISTICS_TAGS-eng: BPS DURATION NUMBER_OF_FRAMES NUMBER_OF_BYTES SOURCE_ID
2025-07-21 01:12:49,518 - ERROR - encoder         : Lavc61.19.101 libx265
2025-07-21 01:12:49,519 - ERROR - Side data:
2025-07-21 01:12:49,519 - ERROR - Mastering Display Metadata, has_primaries:1 has_luminance:1 r(0.6800,0.3200) g(0.2650,0.6900) b(0.1500 0.0600) wp(0.3127, 0.3290) min_luminance=0.005000, max_luminance=4000.000000
2025-07-21 01:12:49,520 - ERROR - Content Light Level Metadata, MaxCLL=500, MaxFALL=200
2025-07-21 01:12:49,520 - ERROR - cpb: bitrate max/min/avg: 0/0/0 buffer size: 0 vbv_delay: N/A
2025-07-21 01:12:49,521 - ERROR - Stream #0:1(eng): Audio: dts (DTS-HD MA + DTS:X) ([1] [0][0] / 0x2001), 48000 Hz, 7.1, s32p (24 bit) (default)
2025-07-21 01:12:49,522 - ERROR - Metadata:
2025-07-21 01:12:49,522 - ERROR - title           : Surround 7.1
2025-07-21 01:12:49,523 - ERROR - BPS-eng         : 3787225
2025-07-21 01:12:49,523 - ERROR - DURATION-eng    : 02:10:26.282666666
2025-07-21 01:12:49,524 - ERROR - NUMBER_OF_FRAMES-eng: 733714
2025-07-21 01:12:49,525 - ERROR - NUMBER_OF_BYTES-eng: 3704986416
2025-07-21 01:12:49,526 - ERROR - SOURCE_ID-eng   : 001100
2025-07-21 01:12:49,527 - ERROR - _STATISTICS_WRITING_APP-eng: MakeMKV v1.18.1 win(x64-release)
2025-07-21 01:12:49,527 - ERROR - _STATISTICS_WRITING_DATE_UTC-eng: 2025-05-29 15:59:14
2025-07-21 01:12:49,528 - ERROR - _STATISTICS_TAGS-eng: BPS DURATION NUMBER_OF_FRAMES NUMBER_OF_BYTES SOURCE_ID
2025-07-21 01:12:49,529 - ERROR - Stream #0:2(eng): Audio: dts (DTS) ([1] [0][0] / 0x2001), 48000 Hz, 5.1(side), fltp, 1536 kb/s
2025-07-21 01:12:49,529 - ERROR - Metadata:
2025-07-21 01:12:49,530 - ERROR - title           : Surround 5.1
2025-07-21 01:12:49,530 - ERROR - BPS-eng         : 1509000
2025-07-21 01:12:49,531 - ERROR - DURATION-eng    : 02:10:26.282666666
2025-07-21 01:12:49,531 - ERROR - NUMBER_OF_FRAMES-eng: 733714
2025-07-21 01:12:49,532 - ERROR - NUMBER_OF_BYTES-eng: 1476232568
2025-07-21 01:12:49,532 - ERROR - SOURCE_ID-eng   : 001100
2025-07-21 01:12:49,533 - ERROR - _STATISTICS_WRITING_APP-eng: MakeMKV v1.18.1 win(x64-release)
2025-07-21 01:12:49,534 - ERROR - _STATISTICS_WRITING_DATE_UTC-eng: 2025-05-29 15:59:14
2025-07-21 01:12:49,534 - ERROR - _STATISTICS_TAGS-eng: BPS DURATION NUMBER_OF_FRAMES NUMBER_OF_BYTES SOURCE_ID
2025-07-21 01:12:49,535 - ERROR - Stream #0:3(eng): Audio: ac3 ([0] [0][0] / 0x2000), 48000 Hz, stereo, fltp, 192 kb/s
2025-07-21 01:12:49,535 - ERROR - Metadata:
2025-07-21 01:12:49,536 - ERROR - title           : Stereo
2025-07-21 01:12:49,537 - ERROR - BPS-eng         : 192000
2025-07-21 01:12:49,537 - ERROR - DURATION-eng    : 02:10:26.304000000
2025-07-21 01:12:49,538 - ERROR - NUMBER_OF_FRAMES-eng: 244572
2025-07-21 01:12:49,539 - ERROR - NUMBER_OF_BYTES-eng: 187831296
2025-07-21 01:12:49,539 - ERROR - SOURCE_ID-eng   : 001101
2025-07-21 01:12:49,540 - ERROR - _STATISTICS_WRITING_APP-eng: MakeMKV v1.18.1 win(x64-release)
2025-07-21 01:12:49,541 - ERROR - _STATISTICS_WRITING_DATE_UTC-eng: 2025-05-29 15:59:14
2025-07-21 01:12:49,541 - ERROR - _STATISTICS_TAGS-eng: BPS DURATION NUMBER_OF_FRAMES NUMBER_OF_BYTES SOURCE_ID
2025-07-21 01:12:49,542 - ERROR - Stream #0:4(eng): Subtitle: hdmv_pgs_subtitle ([255][255][255][255] / 0xFFFFFFFF)
2025-07-21 01:12:49,543 - ERROR - Metadata:
2025-07-21 01:12:49,544 - ERROR - BPS-eng         : 19814
2025-07-21 01:12:49,544 - ERROR - DURATION-eng    : 02:09:07.302062500
2025-07-21 01:12:49,545 - ERROR - NUMBER_OF_FRAMES-eng: 2058
2025-07-21 01:12:49,546 - ERROR - NUMBER_OF_BYTES-eng: 19188179
2025-07-21 01:12:49,546 - ERROR - SOURCE_ID-eng   : 0012A0
2025-07-21 01:12:49,547 - ERROR - _STATISTICS_WRITING_APP-eng: MakeMKV v1.18.1 win(x64-release)
2025-07-21 01:12:49,548 - ERROR - _STATISTICS_WRITING_DATE_UTC-eng: 2025-05-29 15:59:14
2025-07-21 01:12:49,548 - ERROR - _STATISTICS_TAGS-eng: BPS DURATION NUMBER_OF_FRAMES NUMBER_OF_BYTES SOURCE_ID
2025-07-21 07:38:15,280 - ERROR - [out#0/matroska @ 0000017cfa7aec80] video:16343014KiB audio:5243213KiB subtitle:18738KiB other streams:0KiB global headers:3KiB muxing overhead: 0.061835%
2025-07-21 07:38:15,283 - ERROR - x265 [info]: frame I:   1406, Avg QP:18.20  kb/s: 48319.50
2025-07-21 07:38:15,284 - ERROR - x265 [info]: frame P:  42405, Avg QP:19.88  kb/s: 27184.93
2025-07-21 07:38:15,284 - ERROR - x265 [info]: frame B: 143832, Avg QP:23.09  kb/s: 13824.91
2025-07-21 07:38:15,285 - ERROR - x265 [info]: Weighted P-Frames: Y:3.3% UV:2.4%
2025-07-21 07:38:15,285 - ERROR - encoded 187643 frames in 23125.84s (8.11 fps), 17102.57 kb/s, Avg QP:22.32
2025-07-21 07:38:15,650 - INFO - Successfully completed: Re-encoding to x265
2025-07-21 07:38:15,716 - INFO - Starting step: move_final - Moving final file to destination
2025-07-21 07:38:15,718 - INFO - Moving final file from H:\staging\147b9b8a-8476-43fe-a7e8-7a5dba538766\Harry Potter and the Deathly Hallows - Part 2_t01_x265.mkv to Z:\landing_point\Video\Harry Potter and the Deathly Hallows - Part 2\Harry Potter and the Deathly Hallows - Part 2_t01_x265.mkv
2025-07-21 07:44:38,204 - INFO - Move successful.
2025-07-21 07:44:38,361 - INFO - === transcode() completed successfully for job 147b9b8a-8476-43fe-a7e8-7a5dba538766 ===
2025-07-21 07:44:38,654 - INFO - Cleaning up job staging directory: H:\staging\147b9b8a-8476-43fe-a7e8-7a5dba538766
